<svg xmlns="http://www.w3.org/2000/svg" width="43" height="48" viewBox="0 0 43 48" fill="none">
  <path d="M4.82824 9.52862C6.86431 9.52862 8.51487 7.87684 8.51487 5.83926C8.51487 3.80169 6.86431 2.1499 4.82824 2.1499C2.79216 2.1499 1.1416 3.80169 1.1416 5.83926C1.1416 7.87684 2.79216 9.52862 4.82824 9.52862Z" fill="#4386D1"/>
  <path fill-rule="evenodd" clip-rule="evenodd" d="M30.0128 20.9082C31.2547 21.2011 32.5273 21.3441 33.8032 21.3343C35.4308 21.3077 37.0343 20.9358 38.5076 20.2431C39.8589 23.3505 40.2886 26.7812 39.7456 30.1262C39.2026 33.4712 37.7097 36.5893 35.445 39.1088C33.1802 41.6283 30.2392 43.4427 26.9725 44.3359C23.7059 45.229 20.2515 45.1631 17.0213 44.146V37.9105H8.16294C5.74765 34.7459 4.47145 30.8577 4.5413 26.8763C4.61115 22.8949 6.02296 19.0538 8.54776 15.9761C11.0726 12.8984 14.5623 10.7645 18.4509 9.92048C22.3396 9.07647 26.3992 9.57185 29.9712 11.3263L30.0128 20.9082ZM22.2656 36.0606C24.0135 36.0606 25.7222 35.5419 27.1755 34.5701C28.6288 33.5983 29.7616 32.217 30.4304 30.601C31.0993 28.985 31.2744 27.2067 30.9334 25.4911C30.5924 23.7755 29.7507 22.1997 28.5147 20.9628C27.2788 19.726 25.7041 18.8836 23.9897 18.5424C22.2754 18.2011 20.4985 18.3763 18.8836 19.0457C17.2688 19.715 15.8886 20.8486 14.9175 22.303C13.9464 23.7574 13.4281 25.4673 13.4281 27.2165C13.4281 29.5621 14.3592 31.8116 16.0165 33.4702C17.6739 35.1288 19.9218 36.0606 22.2656 36.0606Z" fill="#4EBA85"/>
  <path d="M14.705 40.2075H0V47.2121H14.705V40.2075Z" fill="#F6C050"/>
  <path d="M32.3179 18.8296C33.6187 19.095 34.9628 19.0612 36.2487 18.7308C37.5346 18.4004 38.7286 17.782 39.7408 16.9222C40.7529 16.0624 41.5567 14.9838 42.0914 13.7678C42.6261 12.5517 42.8777 11.23 42.8274 9.90238C42.8508 8.72862 42.6429 7.56174 42.2156 6.46839C41.7883 5.37505 41.1499 4.37668 40.3369 3.53029C39.5239 2.68391 38.5523 2.0061 37.4775 1.53558C36.4027 1.06507 35.2458 0.811074 34.0729 0.788101C33.4829 0.786955 32.8944 0.849675 32.3179 0.975167V18.8296Z" fill="#EC7D79"/>
</svg>